<svg xmlns="http://www.w3.org/2000/svg" viewBox="0 0 71 71"><defs><style>.cls-1{fill:#069ccb;}.cls-2{fill:#fff;}</style></defs><title>Compute</title><g id="Слой_3" data-name="Слой 3"><circle class="cls-1" cx="35.52" cy="35.51" r="35.49"/></g><g id="icons"><rect class="cls-2" x="26.36" y="26.27" width="18.31" height="18.46" rx="0.19" ry="0.19"/><path class="cls-2" d="M54.19,36.51a1,1,0,1,0,0-2H50.58V29h3.61a1,1,0,1,0,0-2H50.58V23.1a2.77,2.77,0,0,0-2.77-2.77H43.94V16.7a1,1,0,1,0-2,0v3.63H36.58V16.7a1,1,0,0,0-2,0v3.63H29.11V16.7a1,1,0,1,0-2,0v3.63H23.23a2.77,2.77,0,0,0-2.77,2.77V27H16.85a1,1,0,0,0,0,2h3.61V34.5H16.85a1,1,0,1,0,0,2h3.61v5.41H16.85a1,1,0,1,0,0,2h3.61v4a2.77,2.77,0,0,0,2.77,2.77h3.86v3.63a1,1,0,1,0,2,0V50.68h5.45v3.63a1,1,0,0,0,2,0V50.68h5.35v3.63a1,1,0,1,0,2,0V50.68h3.87a2.77,2.77,0,0,0,2.77-2.77v-4h3.61a1,1,0,1,0,0-2H50.58V36.51Zm-8.3,8A1.41,1.41,0,0,1,44.48,46H26.56a1.41,1.41,0,0,1-1.41-1.41V26.47a1.41,1.41,0,0,1,1.41-1.41H44.48a1.41,1.41,0,0,1,1.41,1.41Z"/></g></svg>