<svg xmlns="http://www.w3.org/2000/svg" viewBox="0 0 71 71"><defs><style>.cls-1{fill:#f29c09;}.cls-2{fill:#fff;}</style></defs><title>Observer</title><g id="Слой_3" data-name="Слой 3"><circle class="cls-1" cx="35.52" cy="35.51" r="35.49"/></g><g id="icons"><path class="cls-2" d="M52.08,36.21a1.08,1.08,0,0,0,0-1.15h0a21.08,21.08,0,0,0-4.22-4.66,19,19,0,0,0-24.93,0,21.15,21.15,0,0,0-4.25,4.66,1.1,1.1,0,0,0,0,1.16h0a21.67,21.67,0,0,0,4.25,4.66,19,19,0,0,0,24.93,0A21,21,0,0,0,52.08,36.21Zm-16.7,6a6.6,6.6,0,1,1,6.6-6.6A6.61,6.61,0,0,1,35.38,42.24Z"/><path class="cls-2" d="M17.19,23.59h1.09a.55.55,0,0,0,.55-.55V19.09h4a.56.56,0,0,0,.56-.56V17.45a.56.56,0,0,0-.56-.56h-5.2a1,1,0,0,0-1,1V23A.56.56,0,0,0,17.19,23.59Z"/><path class="cls-2" d="M53.1,16.89H47.9a.56.56,0,0,0-.56.56v1.08a.56.56,0,0,0,.56.56h4V23a.55.55,0,0,0,.55.55h1.09a.56.56,0,0,0,.56-.55V17.92A1,1,0,0,0,53.1,16.89Z"/><path class="cls-2" d="M22.86,52.19h-4V48.24a.56.56,0,0,0-.55-.56H17.19a.56.56,0,0,0-.56.56v5.12a1,1,0,0,0,1,1h5.2a.56.56,0,0,0,.56-.55V52.74A.55.55,0,0,0,22.86,52.19Z"/><path class="cls-2" d="M53.57,47.68H52.48a.56.56,0,0,0-.55.56v3.95h-4a.55.55,0,0,0-.56.55v1.09a.56.56,0,0,0,.56.55h5.2a1,1,0,0,0,1-1V48.24A.56.56,0,0,0,53.57,47.68Z"/><circle class="cls-2" cx="35.38" cy="35.66" r="3.74" transform="translate(-6.11 7.33) rotate(-10.9)"/></g></svg>