<svg xmlns="http://www.w3.org/2000/svg" viewBox="0 0 71 71"><defs><style>.cls-1{fill:#6e4fb3;}.cls-2{fill:#fff;}</style></defs><title>Storage</title><g id="Слой_3" data-name="Слой 3"><circle class="cls-1" cx="35.52" cy="35.51" r="35.49"/></g><g id="icons"><path class="cls-2" d="M50.26,19.19H20.35A1.39,1.39,0,0,0,19,20.58v5.91a1.39,1.39,0,0,0,1.39,1.39H50.26a1.39,1.39,0,0,0,1.39-1.39V20.58A1.39,1.39,0,0,0,50.26,19.19ZM24.09,24.26H22.84a.69.69,0,1,1,0-1.38h1.25a.69.69,0,1,1,0,1.38Zm22.33,0H34.32a.69.69,0,0,1,0-1.38h12.1a.69.69,0,0,1,0,1.38Z"/><path class="cls-2" d="M50.26,29.94H20.35A1.39,1.39,0,0,0,19,31.33v5.91a1.4,1.4,0,0,0,1.39,1.4H50.26a1.4,1.4,0,0,0,1.39-1.4V31.33A1.39,1.39,0,0,0,50.26,29.94ZM24.09,35H22.84a.7.7,0,0,1,0-1.39h1.25a.7.7,0,0,1,0,1.39Zm22.33,0H34.32a.7.7,0,0,1,0-1.39h12.1a.7.7,0,0,1,0,1.39Z"/><path class="cls-2" d="M50.26,40.7H20.35A1.39,1.39,0,0,0,19,42.09V48a1.39,1.39,0,0,0,1.39,1.39H50.26A1.39,1.39,0,0,0,51.65,48V42.09A1.39,1.39,0,0,0,50.26,40.7Zm-26.17,5H22.84a.7.7,0,0,1,0-1.39h1.25a.7.7,0,0,1,0,1.39Zm22.33,0H34.32a.7.7,0,0,1,0-1.39h12.1a.7.7,0,0,1,0,1.39Z"/></g></svg>