<svg xmlns="http://www.w3.org/2000/svg" viewBox="0 0 71 71"><defs><style>.cls-1{fill:#2851e0;}.cls-2{fill:#fff;}</style></defs><title>Throwput</title><g id="Слой_3" data-name="Слой 3"><circle class="cls-1" cx="35.52" cy="35.51" r="35.49"/></g><g id="icons"><path class="cls-2" d="M46.68,30.86a1.52,1.52,0,0,0,1.13-.51h2.28a1,1,0,1,0,0-2H47.81a1.52,1.52,0,0,0-1.13-.51h-.83V24.7h.83a1.52,1.52,0,0,0,1.13-.51h2.28a1,1,0,0,0,0-2H47.81a1.52,1.52,0,0,0-1.13-.51h-.83V19.25a2.19,2.19,0,0,0-2.2-2.2H27a2.2,2.2,0,0,0-2.21,2.2v2.39h-.51a1.52,1.52,0,0,0-1.13.51H20.91a1,1,0,1,0,0,2h2.28a1.52,1.52,0,0,0,1.13.51h.51v3.11h-.51a1.52,1.52,0,0,0-1.13.51H20.91a1,1,0,1,0,0,2h2.28a1.52,1.52,0,0,0,1.13.51h.51V34h-.51a1.52,1.52,0,0,0-1.13.51H20.91a1,1,0,1,0,0,2h2.28a1.52,1.52,0,0,0,1.13.51h.51v3.11h-.51a1.52,1.52,0,0,0-1.13.51H20.91a1,1,0,1,0,0,2h2.28a1.52,1.52,0,0,0,1.13.51h.51V46.3h-.51a1.52,1.52,0,0,0-1.13.51H20.91a1,1,0,1,0,0,2h2.28a1.52,1.52,0,0,0,1.13.51h.51v2.39A2.2,2.2,0,0,0,27,54H43.65a2.19,2.19,0,0,0,2.2-2.2V49.36h.83a1.52,1.52,0,0,0,1.13-.51h2.28a1,1,0,0,0,0-2H47.81a1.52,1.52,0,0,0-1.13-.51h-.83V43.19h.83a1.52,1.52,0,0,0,1.13-.51h2.28a1,1,0,1,0,0-2H47.81a1.52,1.52,0,0,0-1.13-.51h-.83V37h.83a1.52,1.52,0,0,0,1.13-.51h2.28a1,1,0,0,0,0-2H47.81A1.52,1.52,0,0,0,46.68,34h-.83V30.86ZM43.25,50.53a1.09,1.09,0,0,1-1.09,1.09H28.52a1.09,1.09,0,0,1-1.09-1.09V20.47a1.09,1.09,0,0,1,1.09-1.09H42.16a1.09,1.09,0,0,1,1.09,1.09Z"/><rect class="cls-2" x="28.31" y="20.25" width="14.07" height="30.49" rx="0.21" ry="0.21"/></g></svg>